<?xml version="1.0" encoding="UTF-8" standalone="no"?>
<!-- Created with Inkscape (http://www.inkscape.org/) -->

<svg
   version="1.1"
   id="svg2094"
   xml:space="preserve"
   width="682.66669"
   height="682.66669"
   viewBox="0 0 682.66669 682.66669"
   xmlns="http://www.w3.org/2000/svg"
   xmlns:svg="http://www.w3.org/2000/svg"><defs
     id="defs2098"><clipPath
       clipPathUnits="userSpaceOnUse"
       id="clipPath2108"><path
         d="M 0,512 H 512 V 0 H 0 Z"
         id="path2106" /></clipPath></defs><g
     id="g2100"
     transform="matrix(1.3333333,0,0,-1.3333333,0,682.66667)"><g
       id="g2102"><g
         id="g2104"
         clip-path="url(#clipPath2108)"><g
           id="g2110"
           transform="translate(74.8721,399.791)"><path
             d="m 0,0 c -35.444,-41.555 -56.83,-95.443 -56.83,-154.328 0,-131.424 106.539,-237.963 237.963,-237.963 4.335,0 8.65,0.113 12.933,0.351 l 52.92,52.92 v 109.427 l -89.472,39.91 v 158.952 z"
             style="fill:#5877d1;fill-opacity:1;fill-rule:nonzero;stroke:none"
             id="path2112" /></g><g
           id="g2114"
           transform="translate(470.394,142.103)"><path
             d="m 0,0 c 15.101,31.254 23.564,66.327 23.564,103.36 0,58.265 -20.953,111.648 -55.726,153.017 l -205.846,-29.42 V 68.005 l 89.472,-39.91 z"
             style="fill:#5877d1;fill-opacity:1;fill-rule:nonzero;stroke:none"
             id="path2116" /></g><g
           id="g2118"
           transform="translate(81.104,224.5732)"><path
             d="M 0,0 C 0,61.503 20.982,118.104 56.175,163.042 L -6.231,175.218 C -41.676,133.663 -63.062,79.774 -63.062,20.89 -63.062,-82.648 3.07,-170.726 95.392,-203.448 37.105,-154.9 0,-81.787 0,0"
             style="fill:#385ac4;fill-opacity:1;fill-rule:nonzero;stroke:none"
             id="path2120" /></g><g
           id="g2122"
           transform="translate(470.394,142.103)"><path
             d="m 0,0 c -36.693,-75.998 -112.608,-129.494 -201.456,-134.252 l -6.183,15.007 c -3.964,9.623 -0.737,20.679 7.69,26.692 5.893,4.18 9.382,10.961 9.382,18.186 -0.496,4.314 2.133,14.148 -6.038,22.863 l -11.653,12.427 c -7.153,7.627 -8.051,19.208 -2.157,27.848 l 3.127,4.582 c 8.371,12.283 2.632,29.159 -11.477,33.793 l -33.834,11.106 c -3.107,1.022 -5.718,3.138 -7.359,5.966 l -23.204,39.913 c -5.046,8.701 -17.556,8.867 -22.841,0.3 l -5.553,-9.001 c -2.456,-3.974 -6.76,-6.327 -11.323,-6.327 -8.745,0 -15.09,8.259 -12.902,16.68 l 12.015,45.992 c 0.949,3.664 3.427,6.751 6.791,8.485 l 24.483,12.602 c 5.518,2.829 8.199,9.002 6.905,14.729 -2.271,10.229 -10.507,18.063 -20.829,19.828 -12.499,2.609 -20.504,2.048 -30.521,8.133 l -35.526,21.562 c -8.784,5.336 -15.256,13.769 -18.125,23.636 l -4.934,16.938 v 0.01 c 43.65,51.175 108.593,83.625 181.133,83.625 73.149,0 138.588,-33.008 182.227,-84.946 l -9.671,-17.195 c -3.676,-6.569 -10.513,-11.136 -18.383,-11.767 -7.865,-0.63 -14.873,-5.212 -18.599,-12.159 l -8.856,-16.504 c -4.325,-8.061 -12.985,-12.83 -22.12,-12.179 -5.53,0.369 -6.571,0.547 -9.206,0.547 -12.025,0 -23.554,-5.027 -31.749,-13.955 -16.169,-17.653 -8.397,-36.39 -21.707,-54.075 l -20.189,-26.939 c -4.696,-6.276 -3.354,-15.183 2.994,-19.786 l 17.495,-12.686 c 3.396,-2.456 7.71,-3.272 11.777,-2.219 23.903,5.959 25.446,7.236 31.295,7.236 7.184,0 14.171,-2.849 19.342,-8.103 14.668,-14.905 30.669,-3.175 45.859,-11.271 13.449,-7.252 14.797,-7.552 17.794,-9.878 z"
             style="fill:#71d5b4;fill-opacity:1;fill-rule:nonzero;stroke:none"
             id="path2124" /></g><g
           id="g2126"
           transform="translate(197.6167,476.2021)"><path
             d="m 0,0 c -48.581,-12.255 -91.218,-39.44 -122.744,-76.401 v -0.01 l 4.933,-16.938 c 2.87,-9.867 9.341,-18.3 18.125,-23.636 l 14.843,-9.009 C -64.497,-88.34 -35.275,-56.201 0,-32.329 Z"
             style="fill:#31c695;fill-opacity:1;fill-rule:nonzero;stroke:none"
             id="path2128" /></g><g
           id="g2130"
           transform="translate(185.9766,504.4995)"><path
             d="m 0,0 c -29.992,0.109 -53.28,-25.902 -51.494,-55.842 1.824,-30.556 22.119,-58.068 36.627,-74.027 7.86,-8.646 21.465,-8.672 29.327,-0.027 15.204,16.719 36.783,46.141 36.783,78.462 C 51.243,-23.091 28.318,-0.103 0,0"
             style="fill:#f98797;fill-opacity:1;fill-rule:nonzero;stroke:none"
             id="path2132" /></g><g
           id="g2134"
           transform="translate(374.5659,246.9595)"><path
             d="m 0,0 c -29.992,0.109 -53.28,-25.903 -51.493,-55.842 1.824,-30.556 22.118,-58.068 36.626,-74.027 7.86,-8.646 21.465,-8.672 29.327,-0.027 15.204,16.718 36.783,46.141 36.783,78.462 C 51.243,-23.092 28.318,-0.104 0,0"
             style="fill:#f98797;fill-opacity:1;fill-rule:nonzero;stroke:none"
             id="path2136" /></g><g
           id="g2138"
           transform="translate(174.9556,449.8423)"><path
             d="m 0,0 c 0,20.757 8.123,39.605 21.342,53.582 -3.333,0.692 -6.785,1.062 -10.321,1.075 -29.992,0.109 -53.28,-25.903 -51.493,-55.842 1.824,-30.556 22.118,-58.067 36.626,-74.026 7.86,-8.647 21.465,-8.673 29.327,-0.028 2.817,3.098 5.852,6.634 8.93,10.541 C 13.65,-50.68 0,-26.935 0,0"
             style="fill:#e35b70;fill-opacity:1;fill-rule:nonzero;stroke:none"
             id="path2140" /></g><g
           id="g2142"
           transform="translate(363.5449,192.3018)"><path
             d="m 0,0 c 0,20.757 8.123,39.605 21.342,53.582 -3.333,0.692 -6.785,1.062 -10.321,1.075 -29.992,0.109 -53.28,-25.903 -51.493,-55.842 1.824,-30.556 22.118,-58.067 36.626,-74.026 7.86,-8.647 21.465,-8.673 29.327,-0.028 2.817,3.098 5.853,6.634 8.93,10.541 C 13.65,-50.68 0,-26.935 0,0"
             style="fill:#e35b70;fill-opacity:1;fill-rule:nonzero;stroke:none"
             id="path2144" /></g><g
           id="g2146"
           transform="translate(204.6147,453.0654)"><path
             d="m 0,0 c 0,-10.399 -8.43,-18.83 -18.83,-18.83 -10.399,0 -18.829,8.431 -18.829,18.83 0,10.399 8.43,18.83 18.829,18.83 C -8.43,18.83 0,10.399 0,0"
             style="fill:#e8e7f9;fill-opacity:1;fill-rule:nonzero;stroke:none"
             id="path2148" /></g><g
           id="g2150"
           transform="translate(393.2041,195.5254)"><path
             d="m 0,0 c 0,-10.399 -8.43,-18.83 -18.83,-18.83 -10.399,0 -18.829,8.431 -18.829,18.83 0,10.399 8.43,18.83 18.829,18.83 C -8.43,18.83 0,10.399 0,0"
             style="fill:#e8e7f9;fill-opacity:1;fill-rule:nonzero;stroke:none"
             id="path2152" /></g><g
           id="g2154"
           transform="translate(204.6147,453.0654)"><path
             d="m 0,0 c 0,-10.399 -8.431,-18.83 -18.83,-18.83 -10.399,0 -18.829,8.431 -18.829,18.83 0,10.399 8.43,18.83 18.829,18.83 C -8.431,18.83 0,10.399 0,0 Z"
             style="fill:none;stroke:#000000;stroke-width:15;stroke-linecap:round;stroke-linejoin:round;stroke-miterlimit:10;stroke-dasharray:none;stroke-opacity:1"
             id="path2156" /></g><g
           id="g2158"
           transform="translate(393.2041,195.5254)"><path
             d="m 0,0 c 0,-10.399 -8.43,-18.83 -18.83,-18.83 -10.399,0 -18.829,8.431 -18.829,18.83 0,10.399 8.43,18.83 18.829,18.83 C -8.43,18.83 0,10.399 0,0 Z"
             style="fill:none;stroke:#000000;stroke-width:15;stroke-linecap:round;stroke-linejoin:round;stroke-miterlimit:10;stroke-dasharray:none;stroke-opacity:1"
             id="path2160" /></g><g
           id="g2162"
           transform="translate(105.1514,61.4258)"><path
             d="m 0,0 c 41.06,-33.696 93.593,-53.926 150.854,-53.926 4.334,0 8.649,0.113 12.932,0.351 l -6.182,15.008 c -3.964,9.622 -0.738,20.678 7.69,26.691 5.893,4.18 9.382,10.961 9.382,18.187 -0.497,4.313 2.133,14.147 -6.038,22.862 L 156.984,41.6 c -7.152,7.628 -8.05,19.209 -2.157,27.847 l 3.128,4.583 c 8.37,12.283 2.632,29.158 -11.477,33.793 l -33.834,11.106 c -3.108,1.022 -5.719,3.137 -7.36,5.966 l -23.203,39.913 c -5.047,8.701 -17.557,8.866 -22.842,0.299 l -5.552,-9 c -2.457,-3.974 -6.761,-6.327 -11.323,-6.327 -8.746,0 -15.091,8.259 -12.902,16.679 l 12.015,45.994 c 0.949,3.664 3.426,6.75 6.791,8.484 l 24.483,12.603 c 5.518,2.828 8.198,9.001 6.904,14.728 -2.27,10.229 -10.507,18.063 -20.828,19.828 -12.499,2.61 -20.505,2.049 -30.521,8.133 l -35.527,21.562 c -8.784,5.336 -15.256,13.769 -18.125,23.636 l -4.933,16.938 c -35.445,-41.554 -56.83,-95.443 -56.83,-154.328 0,-63.361 24.768,-120.932 65.145,-163.575"
             style="fill:none;stroke:#000000;stroke-width:15;stroke-linecap:round;stroke-linejoin:round;stroke-miterlimit:10;stroke-dasharray:none;stroke-opacity:1"
             id="path2164" /></g><g
           id="g2166"
           transform="translate(185.9761,504.4995)"><path
             d="m 0,0 c -29.992,0.109 -53.28,-25.902 -51.493,-55.842 1.824,-30.556 22.118,-58.068 36.626,-74.027 7.86,-8.646 21.465,-8.672 29.327,-0.027 15.204,16.719 36.783,46.141 36.783,78.462 C 51.243,-23.091 28.319,-0.103 0,0 Z"
             style="fill:none;stroke:#000000;stroke-width:15;stroke-linecap:round;stroke-linejoin:round;stroke-miterlimit:10;stroke-dasharray:none;stroke-opacity:1"
             id="path2168" /></g><g
           id="g2170"
           transform="translate(438.2314,398.48)"><path
             d="m 0,0 -9.671,-17.196 c -3.676,-6.569 -10.513,-11.135 -18.383,-11.766 -7.865,-0.63 -14.873,-5.213 -18.599,-12.159 l -8.856,-16.504 c -4.325,-8.062 -12.984,-12.83 -22.119,-12.18 -5.53,0.37 -6.572,0.548 -9.207,0.548 -12.024,0 -23.554,-5.027 -31.749,-13.955 -16.168,-17.653 -8.396,-36.39 -21.706,-54.075 l -20.189,-26.939 c -4.696,-6.275 -3.354,-15.183 2.994,-19.787 l 17.495,-12.685 c 3.395,-2.456 7.71,-3.272 11.776,-2.219 5.73,1.428 10.164,2.585 13.692,3.522 4.068,24.575 24.954,43.968 50.856,43.874 28.319,-0.103 51.243,-23.091 51.243,-51.434 0,-5.976 -0.741,-11.852 -2.04,-17.568 0.176,-0.13 0.355,-0.266 0.54,-0.41 l 46.085,-35.444 c 15.101,31.253 23.565,66.326 23.565,103.36 C 55.727,-94.752 34.773,-41.369 0,0 Z"
             style="fill:none;stroke:#000000;stroke-width:15;stroke-linecap:round;stroke-linejoin:round;stroke-miterlimit:10;stroke-dasharray:none;stroke-opacity:1"
             id="path2172" /></g><g
           id="g2174"
           transform="translate(351.9082,463.3013)"><path
             d="m 0,0 c -29.338,12.937 -61.78,20.125 -95.903,20.125 -9.33,0 -18.532,-0.546 -27.581,-1.59 5.551,-8.212 8.796,-18.112 8.796,-28.771 0,-32.321 -21.581,-61.743 -36.784,-78.462 -7.862,-8.644 -21.466,-8.619 -29.327,0.028 -14.508,15.959 -34.803,43.47 -36.626,74.026 -0.028,0.467 -0.032,0.929 -0.048,1.393 -22.517,-13.41 -42.645,-30.415 -59.563,-50.249 v -0.01 l 4.933,-16.938 c 2.87,-9.867 9.341,-18.3 18.125,-23.636 l 35.527,-21.562 c 10.016,-6.085 18.022,-5.524 30.521,-8.134 10.322,-1.764 18.558,-9.598 20.828,-19.827 1.294,-5.728 -1.386,-11.9 -6.904,-14.729 l -24.483,-12.602 c -3.365,-1.735 -5.842,-4.821 -6.791,-8.485 l -12.015,-45.993 c -2.188,-8.42 4.156,-16.679 12.902,-16.679 4.562,0 8.867,2.353 11.323,6.326 l 5.552,9.001 c 5.286,8.567 17.795,8.402 22.842,-0.299 l 23.203,-39.914 c 1.641,-2.828 4.252,-4.944 7.36,-5.966 l 33.834,-11.106 c 14.109,-4.634 19.847,-21.509 11.477,-33.792 l -3.128,-4.583 c -5.893,-8.639 -4.995,-20.22 2.158,-27.847 l 11.653,-12.428 c 8.171,-8.714 5.541,-18.549 6.038,-22.862 0,-7.225 -3.488,-14.006 -9.382,-18.186 -8.428,-6.014 -11.654,-17.069 -7.69,-26.692 l 6.182,-15.008 c 88.849,4.759 164.764,58.255 201.456,134.253 L 72.4,-285.754 c -0.185,0.144 -0.364,0.279 -0.54,0.41 -5.725,-25.198 -22.35,-47.267 -34.743,-60.894 -7.861,-8.645 -21.467,-8.619 -29.326,0.027 -14.508,15.959 -34.803,43.471 -36.627,74.027 -0.243,4.083 -0.006,8.088 0.637,11.968 -3.528,-0.937 -7.962,-2.094 -13.692,-3.522 -4.066,-1.053 -8.38,-0.238 -11.776,2.219 l -17.495,12.685 c -6.348,4.604 -7.69,13.511 -2.993,19.787 l 20.188,26.939 c 13.31,17.685 5.538,36.421 21.706,54.074 8.196,8.929 19.725,13.955 31.749,13.955 2.635,0 3.677,-0.177 9.207,-0.547 9.135,-0.65 17.794,4.118 22.119,12.18 l 8.856,16.504 c 3.726,6.946 10.734,11.529 18.6,12.158 7.87,0.632 14.707,5.198 18.382,11.767 l 9.671,17.196 C 69.73,-45.073 49.979,-28.071 27.856,-14.57"
             style="fill:none;stroke:#000000;stroke-width:15;stroke-linecap:round;stroke-linejoin:round;stroke-miterlimit:10;stroke-dasharray:none;stroke-opacity:1"
             id="path2176" /></g><g
           id="g2178"
           transform="translate(374.5659,246.959)"><path
             d="m 0,0 c -29.992,0.109 -53.28,-25.902 -51.493,-55.841 1.824,-30.556 22.118,-58.068 36.626,-74.028 7.86,-8.646 21.465,-8.672 29.327,-0.027 15.204,16.719 36.783,46.141 36.783,78.462 C 51.243,-23.091 28.318,-0.103 0,0 Z"
             style="fill:none;stroke:#000000;stroke-width:15;stroke-linecap:round;stroke-linejoin:round;stroke-miterlimit:10;stroke-dasharray:none;stroke-opacity:1"
             id="path2180" /></g></g></g></g></svg>
